<?xml version="1.0" encoding="UTF-8"?> <svg xmlns="http://www.w3.org/2000/svg" viewBox="0 0 314.69 47.75"><defs><style>.cls-1{fill:#6ba539;}.cls-2{fill:#373a36;}.cls-3{fill:#fff;}</style></defs><title>Ativo 1</title><g id="Camada_2" data-name="Camada 2"><g id="Layer_1" data-name="Layer 1"><path class="cls-1" d="M308.11,9.42H292.53A6.59,6.59,0,0,0,286,16V31.57a6.61,6.61,0,0,0,6.58,6.59h15.58a6.61,6.61,0,0,0,6.58-6.59V16A6.6,6.6,0,0,0,308.11,9.42Zm.73,20.69a2.2,2.2,0,0,1-2.2,2.19H294a2.2,2.2,0,0,1-2.19-2.19V17.46A2.2,2.2,0,0,1,294,15.27h12.65a2.2,2.2,0,0,1,2.2,2.19Z"></path><path class="cls-1" d="M68.45,17.52V30.13a2.2,2.2,0,0,0,2.19,2.19H91.11v5.84H69.18a6.59,6.59,0,0,1-6.57-6.57V16.06a6.59,6.59,0,0,1,6.57-6.57H91.11v5.84H70.64A2.19,2.19,0,0,0,68.45,17.52Z"></path><path class="cls-1" d="M230.24,15.42h20.52V9.57h-22a6.6,6.6,0,0,0-6.58,6.59V31.73a6.6,6.6,0,0,0,6.58,6.58h22V32.46H230.24a2.2,2.2,0,0,1-2.2-2.19V27h13.5V21.16H228V17.62A2.21,2.21,0,0,1,230.24,15.42Z"></path><path class="cls-1" d="M166.46,15.42H187V9.57H165a6.61,6.61,0,0,0-6.59,6.59V31.73A6.61,6.61,0,0,0,165,38.31h22V32.46h0V23.11H171.77V29h9.34v3.49H166.46a2.2,2.2,0,0,1-2.2-2.19V17.62A2.21,2.21,0,0,1,166.46,15.42Z"></path><path class="cls-1" d="M116.63,9.57H101.06a6.6,6.6,0,0,0-6.58,6.59v22h5.85V28.89h17v9.26h5.86v-22A6.61,6.61,0,0,0,116.63,9.57ZM100.33,23v-5.4a2.2,2.2,0,0,1,2.19-2.2h12.65a2.2,2.2,0,0,1,2.19,2.2V23Z"></path><path class="cls-1" d="M156.43,38.13l-3.88-10.52a6.58,6.58,0,0,0,2.69-5.3v-6.7a6.59,6.59,0,0,0-6.33-6h-16a6.59,6.59,0,0,0-6.35,6.58v22h5.85V28.89h14.78l3.4,9.24ZM132.38,23v-5.4a2.19,2.19,0,0,1,1.92-2.18h13.19a2.2,2.2,0,0,1,1.9,1.87,1.55,1.55,0,0,1,0,.31V23h-17Z"></path><path class="cls-1" d="M283.83,38.32,280,27.8a6.58,6.58,0,0,0,2.7-5.3V15.8a6.59,6.59,0,0,0-6.34-6h-16a6.59,6.59,0,0,0-6.36,6.58v22h5.85V29.07h14.78l3.4,9.24ZM259.78,23.21v-5.4a2.2,2.2,0,0,1,1.93-2.18h13.18a2.2,2.2,0,0,1,1.9,1.87,1.63,1.63,0,0,1,0,.31v5.4h-17Z"></path><path class="cls-1" d="M219,9.65v22a6.61,6.61,0,0,1-6.59,6.59H196.81a6.62,6.62,0,0,1-6.59-6.59v-22h5.86V30.18a2.19,2.19,0,0,0,2.19,2.19h12.65a2.19,2.19,0,0,0,2.19-2.19V9.65Z"></path><rect class="cls-1" width="47.75" height="47.75" rx="10.53"></rect><rect class="cls-2" x="12.43" y="42.35" width="6.94" height="3.22" rx="0.57"></rect><rect class="cls-2" x="28.37" y="42.35" width="6.94" height="3.22" rx="0.57"></rect><path class="cls-3" d="M34.49,2.22a80.75,80.75,0,0,1-21.19,0A3.68,3.68,0,0,0,9.66,5.94V39.53A3.48,3.48,0,0,0,13.26,43H34.49a3.54,3.54,0,0,0,3.67-3.51V5.94A3.71,3.71,0,0,0,34.49,2.22Z"></path><rect class="cls-2" x="9.66" y="12.13" width="28.52" height="9.5"></rect><path class="cls-2" d="M29.17,38.52H18.59a.8.8,0,1,1,0-1.59H29.17a.8.8,0,1,1,0,1.59Z"></path><path class="cls-2" d="M31.07,35.23H16.68a.79.79,0,1,1,0-1.58H31.07a.79.79,0,1,1,0,1.58Z"></path><path class="cls-2" d="M32.34,32H15.41a.79.79,0,1,1,0-1.58H32.34a.79.79,0,1,1,0,1.58Z"></path><path class="cls-2" d="M33.61,28.67H14.15a.79.79,0,1,1,0-1.58H33.61a.79.79,0,1,1,0,1.58Z"></path><rect class="cls-2" x="11.36" y="36.95" width="4.44" height="2.54" rx="0.85"></rect><rect class="cls-3" x="5.83" y="13.73" width="2.75" height="5.83" rx="0.85"></rect><rect class="cls-3" x="39.17" y="13.73" width="2.75" height="5.83" rx="0.85"></rect><rect class="cls-2" x="31.95" y="36.95" width="4.44" height="2.54" rx="0.85"></rect></g></g></svg> 